<svg width="13" height="15" viewBox="0 0 13 15" fill="none" xmlns="http://www.w3.org/2000/svg">
<path d="M7.89648 14.8411C8.01074 14.8411 8.10384 14.8051 8.17578 14.7332C8.25195 14.6612 8.30062 14.5681 8.32178 14.4539C8.41488 13.7725 8.51644 13.197 8.62646 12.7273C8.73649 12.2618 8.88249 11.8788 9.06445 11.5784C9.24642 11.2737 9.48551 11.0325 9.78174 10.8547C10.078 10.677 10.4546 10.5374 10.9116 10.4358C11.3729 10.33 11.9378 10.239 12.6064 10.1628C12.7207 10.1501 12.8138 10.1036 12.8857 10.0232C12.9619 9.94279 13 9.84758 13 9.73755C13 9.62752 12.964 9.53442 12.8921 9.45825C12.8201 9.37785 12.7249 9.32918 12.6064 9.31226C11.9378 9.23185 11.375 9.14087 10.918 9.03931C10.4652 8.93351 10.0907 8.79175 9.79443 8.61401C9.49821 8.43205 9.25911 8.19084 9.07715 7.89038C8.89941 7.58993 8.75342 7.20695 8.63916 6.74146C8.5249 6.27596 8.41911 5.70256 8.32178 5.02124C8.30062 4.90698 8.25195 4.816 8.17578 4.74829C8.09961 4.67635 8.00651 4.64038 7.89648 4.64038C7.79069 4.64038 7.69759 4.67635 7.61719 4.74829C7.54102 4.816 7.49447 4.90698 7.47754 5.02124C7.38867 5.70256 7.28711 6.27808 7.17285 6.7478C7.06283 7.2133 6.91683 7.59627 6.73486 7.89673C6.5529 8.19718 6.3138 8.4384 6.01758 8.62036C5.72135 8.80233 5.34261 8.94621 4.88135 9.052C4.42432 9.15356 3.86149 9.24032 3.19287 9.31226C3.07438 9.32495 2.97705 9.3715 2.90088 9.4519C2.82894 9.53231 2.79297 9.62752 2.79297 9.73755C2.79297 9.84758 2.82894 9.94279 2.90088 10.0232C2.97705 10.1036 3.07438 10.1501 3.19287 10.1628C3.86149 10.2517 4.4222 10.3512 4.875 10.4612C5.33203 10.5712 5.70654 10.7151 5.99854 10.8928C6.29053 11.0706 6.52751 11.3075 6.70947 11.6038C6.89144 11.9 7.03955 12.2787 7.15381 12.74C7.26807 13.2013 7.37598 13.7725 7.47754 14.4539C7.4987 14.5681 7.54736 14.6612 7.62354 14.7332C7.69971 14.8051 7.79069 14.8411 7.89648 14.8411ZM3.44043 7.78882C3.51237 7.78882 3.57161 7.76766 3.61816 7.72534C3.66471 7.67879 3.69222 7.62166 3.70068 7.55396C3.7557 7.13924 3.81071 6.81551 3.86572 6.58276C3.92497 6.34578 4.01595 6.16805 4.13867 6.04956C4.26139 5.93107 4.44548 5.84009 4.69092 5.77661C4.93636 5.7089 5.27913 5.63485 5.71924 5.55444C5.87158 5.52482 5.94775 5.43807 5.94775 5.29419C5.94775 5.22225 5.92448 5.163 5.87793 5.11646C5.83561 5.06991 5.7806 5.0424 5.71289 5.03394C5.27702 4.97469 4.93636 4.91545 4.69092 4.8562C4.44548 4.79696 4.26139 4.70597 4.13867 4.58325C4.01595 4.46053 3.92497 4.27856 3.86572 4.03735C3.81071 3.79614 3.7557 3.46183 3.70068 3.03442C3.68376 2.87362 3.59701 2.79321 3.44043 2.79321C3.28809 2.79321 3.20345 2.87573 3.18652 3.04077C3.13574 3.45972 3.08073 3.78556 3.02148 4.01831C2.96647 4.25106 2.87549 4.42668 2.74854 4.54517C2.62581 4.65942 2.43962 4.75041 2.18994 4.81812C1.9445 4.88159 1.60384 4.95353 1.16797 5.03394C1.01562 5.05933 0.939453 5.14608 0.939453 5.29419C0.939453 5.4423 1.0262 5.52905 1.19971 5.55444C1.62712 5.62215 1.96143 5.68774 2.20264 5.75122C2.44808 5.81047 2.63216 5.90145 2.75488 6.02417C2.8776 6.14266 2.96647 6.32251 3.02148 6.56372C3.08073 6.8007 3.13574 7.12655 3.18652 7.54126C3.20345 7.7063 3.28809 7.78882 3.44043 7.78882ZM6.52539 3.30737C6.61849 3.30737 6.6735 3.25659 6.69043 3.15503C6.73275 2.90112 6.77295 2.70223 6.81104 2.55835C6.84912 2.41024 6.90413 2.2981 6.97607 2.22192C7.04801 2.14575 7.16016 2.08651 7.3125 2.04419C7.46484 1.99764 7.67643 1.94897 7.94727 1.89819C8.04883 1.88127 8.09961 1.82625 8.09961 1.73315C8.09961 1.64006 8.04883 1.58504 7.94727 1.56812C7.6722 1.51733 7.4585 1.4729 7.30615 1.43481C7.15804 1.3925 7.0459 1.33325 6.96973 1.25708C6.89779 1.18091 6.84277 1.06877 6.80469 0.920654C6.77083 0.772542 6.73275 0.569417 6.69043 0.311279C6.6735 0.209717 6.61849 0.158936 6.52539 0.158936C6.42806 0.158936 6.37305 0.211833 6.36035 0.317627C6.3138 0.571533 6.2736 0.770426 6.23975 0.914307C6.20589 1.05819 6.15088 1.16821 6.07471 1.24438C6.00277 1.32056 5.89062 1.3798 5.73828 1.42212C5.58594 1.46444 5.37435 1.5131 5.10352 1.56812C5.00195 1.58504 4.95117 1.64006 4.95117 1.73315C4.95117 1.82625 5.00407 1.88127 5.10986 1.89819C5.3807 1.94474 5.59017 1.99129 5.73828 2.03784C5.89062 2.08016 6.00277 2.1394 6.07471 2.21558C6.15088 2.29175 6.20589 2.40389 6.23975 2.552C6.2736 2.69588 6.3138 2.89689 6.36035 3.15503C6.37305 3.25659 6.42806 3.30737 6.52539 3.30737Z" fill="white"/>
</svg>
