<svg width="40" height="40" viewBox="0 0 40 40" fill="none" xmlns="http://www.w3.org/2000/svg">
<circle cx="20" cy="20" r="19.5" fill="white" stroke="url(#paint0_linear_7_97)"/>
<path d="M22.8277 17.3089L22.8277 17.309C22.5179 17.6185 22.0099 17.6278 21.6911 17.3089C21.6911 17.3089 21.6911 17.3089 21.6911 17.3089M22.8277 17.3089L21.7618 16.2432C21.4869 16.5178 21.4869 16.9634 21.7618 17.2382L21.6911 17.3089M22.8277 17.3089L26.3464 13.7898C26.6604 13.4759 26.6605 12.967 26.3464 12.6532C26.3464 12.6532 26.3464 12.6532 26.3464 12.6532L22.8274 9.13519L22.8273 9.13512C22.5133 8.82171 22.0049 8.82148 21.6909 9.13533L21.6908 9.13534C21.3769 9.44933 21.3769 9.95795 21.6908 10.2719L21.6908 10.2719L23.8375 12.4178L18.7409 12.4179C14.4171 12.4179 10.9 15.9354 10.9 20.259C10.9 20.7029 11.2599 21.0626 11.7036 21.0626C12.1473 21.0626 12.5072 20.7028 12.5072 20.259C12.5072 16.8219 15.3038 14.0256 18.7408 14.0256L23.838 14.0253L21.6912 16.1724M22.8277 17.3089L21.6912 16.1724M21.6911 17.3089C21.3772 16.995 21.3771 16.4861 21.6912 16.1724M21.6911 17.3089L21.6912 16.1724" fill="#1C44C8" stroke="#1C44C8" stroke-width="0.2"/>
<path d="M16.6542 20.6537L16.6543 20.6536C16.9641 20.3441 17.4721 20.3348 17.7908 20.6536C17.7908 20.6536 17.7908 20.6537 17.7908 20.6537M16.6542 20.6537L17.7201 21.7194C17.995 21.4448 17.995 20.9992 17.7201 20.7244L17.7908 20.6537M16.6542 20.6537L13.1355 24.1728C12.8215 24.4867 12.8215 24.9956 13.1355 25.3094C13.1355 25.3094 13.1355 25.3094 13.1355 25.3094L16.6545 28.8274L16.6546 28.8275C16.9687 29.1409 17.4771 29.1411 17.7911 28.8273L17.7911 28.8272C18.1051 28.5133 18.1051 28.0046 17.7911 27.6906L17.7911 27.6906L15.6445 25.5448L20.741 25.5447C25.0648 25.5447 28.5819 22.0272 28.5819 17.7036C28.5819 17.2597 28.222 16.9 27.7783 16.9C27.3346 16.9 26.9747 17.2598 26.9747 17.7036C26.9747 21.1407 24.1782 23.937 20.7411 23.937L15.6439 23.9373L17.7908 21.7902M16.6542 20.6537L17.7908 21.7902M17.7908 20.6537C18.1048 20.9675 18.1048 21.4765 17.7908 21.7902M17.7908 20.6537L17.7908 21.7902" fill="#1C44C8" stroke="#1C44C8" stroke-width="0.2"/>
<defs>
<linearGradient id="paint0_linear_7_97" x1="20" y1="1" x2="20" y2="39" gradientUnits="userSpaceOnUse">
<stop stop-opacity="0.06"/>
<stop offset="1" stop-opacity="0.19"/>
</linearGradient>
</defs>
</svg>
