<svg width="19" height="18" viewBox="0 0 19 18" fill="none" xmlns="http://www.w3.org/2000/svg">
<path d="M6.43892 15.75C12.6654 15.75 16.071 10.5557 16.071 6.05122C16.071 5.90369 16.071 5.75682 16.0611 5.61061C16.7236 5.12807 17.2955 4.5306 17.75 3.84617C17.1322 4.12184 16.4767 4.30262 15.8056 4.38248C16.5123 3.95648 17.0412 3.28645 17.2939 2.49709C16.6294 2.89414 15.9024 3.17396 15.1443 3.32448C14.6339 2.77799 13.9589 2.41612 13.2236 2.29487C12.4884 2.17361 11.734 2.29973 11.0771 2.65372C10.4202 3.0077 9.89753 3.5698 9.58988 4.25305C9.28224 4.93629 9.20681 5.70259 9.37526 6.43335C8.02936 6.36541 6.71269 6.01323 5.51072 5.39967C4.30876 4.78611 3.24837 3.92489 2.3984 2.87191C1.9655 3.62232 1.83291 4.51065 2.02763 5.35604C2.22235 6.20143 2.72973 6.94031 3.44648 7.42224C2.90775 7.40616 2.38076 7.25983 1.91 6.99558C1.91 7.00954 1.91 7.02416 1.91 7.03878C1.91021 7.82578 2.18077 8.58848 2.67579 9.19751C3.1708 9.80654 3.85979 10.2244 4.6259 10.3803C4.12751 10.5171 3.6046 10.5371 3.09734 10.4387C3.31366 11.116 3.73481 11.7083 4.30189 12.1328C4.86896 12.5572 5.55361 12.7926 6.26006 12.8059C5.06133 13.7546 3.5805 14.2696 2.05586 14.268C1.78652 14.2675 1.51743 14.2511 1.25 14.2188C2.79812 15.2192 4.59944 15.7498 6.43892 15.7473" fill="#D8D8D8"/>
</svg>
