<svg width="18" height="18" viewBox="0 0 18 18" fill="none" xmlns="http://www.w3.org/2000/svg">
<path d="M5.93892 15.75C12.1654 15.75 15.571 10.5557 15.571 6.05122C15.571 5.90369 15.571 5.75682 15.5611 5.61061C16.2236 5.12807 16.7955 4.5306 17.25 3.84617C16.6322 4.12184 15.9767 4.30262 15.3056 4.38248C16.0123 3.95648 16.5412 3.28645 16.7939 2.49709C16.1294 2.89414 15.4024 3.17396 14.6443 3.32448C14.1339 2.77799 13.4589 2.41612 12.7236 2.29487C11.9884 2.17361 11.234 2.29973 10.5771 2.65372C9.92023 3.0077 9.39753 3.5698 9.08988 4.25305C8.78224 4.93629 8.70681 5.70259 8.87526 6.43335C7.52936 6.36541 6.21269 6.01323 5.01072 5.39967C3.80876 4.78611 2.74837 3.92489 1.8984 2.87191C1.4655 3.62232 1.33291 4.51065 1.52763 5.35604C1.72235 6.20143 2.22973 6.94031 2.94648 7.42224C2.40775 7.40616 1.88076 7.25983 1.41 6.99558C1.41 7.00954 1.41 7.02416 1.41 7.03878C1.41021 7.82578 1.68077 8.58848 2.17579 9.19751C2.6708 9.80654 3.35979 10.2244 4.1259 10.3803C3.62751 10.5171 3.1046 10.5371 2.59734 10.4387C2.81366 11.116 3.23481 11.7083 3.80189 12.1328C4.36896 12.5572 5.05361 12.7926 5.76006 12.8059C4.56133 13.7546 3.0805 14.2696 1.55586 14.268C1.28652 14.2675 1.01743 14.2511 0.75 14.2188C2.29812 15.2192 4.09944 15.7498 5.93892 15.7473" fill="black"/>
</svg>
